<svg width="30" height="30" viewBox="0 0 30 30" fill="none" xmlns="http://www.w3.org/2000/svg">
<path d="M0.9375 18.5625C1.45527 18.5625 1.875 18.9823 1.875 19.5V24.1875C1.875 25.2231 2.71447 26.0625 3.75 26.0625H26.25C27.2855 26.0625 28.125 25.2231 28.125 24.1875V19.5C28.125 18.9823 28.5447 18.5625 29.0625 18.5625C29.5803 18.5625 30 18.9823 30 19.5V24.1875C30 26.2586 28.3211 27.9375 26.25 27.9375H3.75C1.67893 27.9375 0 26.2586 0 24.1875V19.5C0 18.9823 0.419733 18.5625 0.9375 18.5625Z" fill="black"/>
<path d="M14.3371 22.2254C14.7032 22.5915 15.2968 22.5915 15.6629 22.2254L21.2879 16.6004C21.654 16.2343 21.654 15.6407 21.2879 15.2746C20.9218 14.9085 20.3282 14.9085 19.9621 15.2746L15.9375 19.2992V2.8125C15.9375 2.29473 15.5178 1.875 15 1.875C14.4822 1.875 14.0625 2.29473 14.0625 2.8125V19.2992L10.0379 15.2746C9.6718 14.9085 9.0782 14.9085 8.71209 15.2746C8.34597 15.6407 8.34597 16.2343 8.71209 16.6004L14.3371 22.2254Z" fill="black"/>
</svg>
