<svg width="50" height="50" viewBox="0 0 50 50" fill="none" xmlns="http://www.w3.org/2000/svg">
<path d="M46.875 43.75C46.875 43.75 50 43.75 50 40.625C50 37.5 46.875 28.125 34.375 28.125C21.875 28.125 18.75 37.5 18.75 40.625C18.75 43.75 21.875 43.75 21.875 43.75H46.875ZM21.9448 40.625C21.934 40.6237 21.9189 40.6218 21.9005 40.6187C21.8918 40.6172 21.8833 40.6157 21.875 40.6141C21.8796 39.789 22.3965 37.3966 24.2477 35.2368C25.9792 33.2167 29.0084 31.25 34.375 31.25C39.7416 31.25 42.7708 33.2167 44.5023 35.2368C46.3535 37.3966 46.8704 39.789 46.875 40.6141C46.8667 40.6157 46.8582 40.6172 46.8495 40.6187C46.8312 40.6218 46.816 40.6237 46.8052 40.625H21.9448Z" fill="#16A34A"/>
<path d="M34.375 21.875C37.8268 21.875 40.625 19.0768 40.625 15.625C40.625 12.1732 37.8268 9.375 34.375 9.375C30.9232 9.375 28.125 12.1732 28.125 15.625C28.125 19.0768 30.9232 21.875 34.375 21.875ZM43.75 15.625C43.75 20.8027 39.5527 25 34.375 25C29.1973 25 25 20.8027 25 15.625C25 10.4473 29.1973 6.25 34.375 6.25C39.5527 6.25 43.75 10.4473 43.75 15.625Z" fill="#16A34A"/>
<path d="M21.6748 28.9999C20.5254 28.6322 19.2486 28.365 17.8321 28.2283C17.1311 28.1607 16.3959 28.125 15.625 28.125C3.125 28.125 0 37.5 0 40.625C0 42.7083 1.04167 43.75 3.125 43.75H16.3011C15.8611 42.8622 15.625 41.8098 15.625 40.625C15.625 37.4679 16.8039 34.2438 19.0307 31.5506C19.7915 30.6305 20.6746 29.7723 21.6748 28.9999ZM15.3751 31.2514C13.508 34.105 12.5 37.3584 12.5 40.625H3.125C3.125 39.8102 3.63826 37.4062 5.49768 35.2368C7.20214 33.2483 10.164 31.3115 15.3751 31.2514Z" fill="#16A34A"/>
<path d="M4.6875 17.1875C4.6875 12.0098 8.88483 7.8125 14.0625 7.8125C19.2402 7.8125 23.4375 12.0098 23.4375 17.1875C23.4375 22.3652 19.2402 26.5625 14.0625 26.5625C8.88483 26.5625 4.6875 22.3652 4.6875 17.1875ZM14.0625 10.9375C10.6107 10.9375 7.8125 13.7357 7.8125 17.1875C7.8125 20.6393 10.6107 23.4375 14.0625 23.4375C17.5143 23.4375 20.3125 20.6393 20.3125 17.1875C20.3125 13.7357 17.5143 10.9375 14.0625 10.9375Z" fill="#16A34A"/>
</svg>
