<svg width="38" height="38" viewBox="0 0 38 38" fill="none" xmlns="http://www.w3.org/2000/svg">
<path d="M19 19C24.1777 19 28.375 14.8027 28.375 9.625C28.375 4.44733 24.1777 0.25 19 0.25C13.8223 0.25 9.625 4.44733 9.625 9.625C9.625 14.8027 13.8223 19 19 19ZM25.25 9.625C25.25 13.0768 22.4518 15.875 19 15.875C15.5482 15.875 12.75 13.0768 12.75 9.625C12.75 6.17322 15.5482 3.375 19 3.375C22.4518 3.375 25.25 6.17322 25.25 9.625Z" fill="#154FEF"/>
<path d="M37.75 34.625C37.75 37.75 34.625 37.75 34.625 37.75H3.375C3.375 37.75 0.25 37.75 0.25 34.625C0.25 31.5 3.375 22.125 19 22.125C34.625 22.125 37.75 31.5 37.75 34.625ZM34.6249 34.6141C34.6205 33.8429 34.1445 31.5327 32.0246 29.4128C29.9863 27.3745 26.1534 25.25 19 25.25C11.8465 25.25 8.0136 27.3745 5.9753 29.4128C3.85548 31.5327 3.37945 33.8429 3.375 34.6141H34.6249Z" fill="#154FEF"/>
</svg>
