<svg width="51" height="51" viewBox="0 0 51 51" fill="none" xmlns="http://www.w3.org/2000/svg">
<path d="M27.0625 36.4375C27.0625 37.3004 26.3629 38 25.5 38C24.6371 38 23.9375 37.3004 23.9375 36.4375V24.5847L20.3549 28.1674C19.7447 28.7775 18.7553 28.7775 18.1451 28.1674C17.535 27.5572 17.535 26.5678 18.1451 25.9576L24.3951 19.7076C25.0053 19.0975 25.9947 19.0975 26.6049 19.7076L32.8549 25.9576C33.465 26.5678 33.465 27.5572 32.8549 28.1674C32.2447 28.7775 31.2553 28.7775 30.6451 28.1674L27.0625 24.5847V36.4375Z" fill="#154FEF"/>
<path d="M44.25 44.25V14.5625L30.1875 0.5H13C9.54822 0.5 6.75 3.29822 6.75 6.75V44.25C6.75 47.7018 9.54822 50.5 13 50.5H38C41.4518 50.5 44.25 47.7018 44.25 44.25ZM30.1875 9.875C30.1875 12.4638 32.2862 14.5625 34.875 14.5625H41.125V44.25C41.125 45.9759 39.7259 47.375 38 47.375H13C11.2741 47.375 9.875 45.9759 9.875 44.25V6.75C9.875 5.02411 11.2741 3.625 13 3.625H30.1875V9.875Z" fill="#154FEF"/>
</svg>
