<svg width="17" height="16" viewBox="0 0 17 16" fill="none" xmlns="http://www.w3.org/2000/svg">
<path d="M1 9.90002C1.27614 9.90002 1.5 10.1239 1.5 10.4V12.9C1.5 13.4523 1.94772 13.9 2.5 13.9H14.5C15.0523 13.9 15.5 13.4523 15.5 12.9V10.4C15.5 10.1239 15.7239 9.90002 16 9.90002C16.2761 9.90002 16.5 10.1239 16.5 10.4V12.9C16.5 14.0046 15.6046 14.9 14.5 14.9H2.5C1.39543 14.9 0.5 14.0046 0.5 12.9V10.4C0.5 10.1239 0.723858 9.90002 1 9.90002Z" fill="white"/>
<path d="M8.14645 1.14645C8.34171 0.951184 8.65829 0.951184 8.85355 1.14645L11.8536 4.14645C12.0488 4.34171 12.0488 4.65829 11.8536 4.85355C11.6583 5.04882 11.3417 5.04882 11.1464 4.85355L9 2.70711V11.5C9 11.7761 8.77614 12 8.5 12C8.22386 12 8 11.7761 8 11.5V2.70711L5.85355 4.85355C5.65829 5.04882 5.34171 5.04882 5.14645 4.85355C4.95118 4.65829 4.95118 4.34171 5.14645 4.14645L8.14645 1.14645Z" fill="white"/>
</svg>
