<svg width="30" height="30" viewBox="0 0 30 30" fill="none" xmlns="http://www.w3.org/2000/svg">
<path d="M0.9375 18.5625C1.45527 18.5625 1.875 18.9823 1.875 19.5V24.1875C1.875 25.2231 2.71447 26.0625 3.75 26.0625H26.25C27.2855 26.0625 28.125 25.2231 28.125 24.1875V19.5C28.125 18.9823 28.5447 18.5625 29.0625 18.5625C29.5803 18.5625 30 18.9823 30 19.5V24.1875C30 26.2586 28.3211 27.9375 26.25 27.9375H3.75C1.67893 27.9375 0 26.2586 0 24.1875V19.5C0 18.9823 0.419733 18.5625 0.9375 18.5625Z" fill="black"/>
<path d="M14.3371 2.14959C14.7032 1.78347 15.2968 1.78347 15.6629 2.14959L21.2879 7.77459C21.654 8.1407 21.654 8.7343 21.2879 9.10041C20.9218 9.46653 20.3282 9.46653 19.9621 9.10041L15.9375 5.07583V21.5625C15.9375 22.0803 15.5178 22.5 15 22.5C14.4822 22.5 14.0625 22.0803 14.0625 21.5625V5.07583L10.0379 9.10041C9.6718 9.46653 9.0782 9.46653 8.71209 9.10041C8.34597 8.7343 8.34597 8.1407 8.71209 7.77459L14.3371 2.14959Z" fill="black"/>
</svg>
